<svg width="256" height="256" viewBox="0 0 256 256" fill="none" xmlns="http://www.w3.org/2000/svg">
<g clip-path="url(#clip0_46_1018)">
<rect width="256" height="256" fill="#A56A86"/>
<circle cx="10" cy="10" r="2" fill="#884263"/>
<circle cx="29.6667" cy="10" r="2" fill="#884263"/>
<circle cx="49.3333" cy="10" r="2" fill="#884263"/>
<circle cx="69" cy="10" r="2" fill="#884263"/>
<circle cx="88.6667" cy="10" r="2" fill="#884263"/>
<circle cx="108.333" cy="10" r="2" fill="#884263"/>
<circle cx="128" cy="10" r="2" fill="#884263"/>
<circle cx="147.667" cy="10" r="2" fill="#884263"/>
<circle cx="167.333" cy="10" r="2" fill="#884263"/>
<circle cx="187" cy="10" r="2" fill="#884263"/>
<circle cx="206.667" cy="10" r="2" fill="#884263"/>
<circle cx="226.333" cy="10" r="2" fill="#884263"/>
<circle cx="246" cy="10" r="2" fill="#884263"/>
<circle cx="10" cy="29.6666" r="2" fill="#884263"/>
<circle cx="29.6667" cy="29.6666" r="2" fill="#884263"/>
<circle cx="49.3333" cy="29.6666" r="2" fill="#884263"/>
<circle cx="69" cy="29.6666" r="2" fill="#884263"/>
<circle cx="88.6667" cy="29.6666" r="2" fill="#884263"/>
<circle cx="108.333" cy="29.6666" r="2" fill="#884263"/>
<circle cx="128" cy="29.6666" r="2" fill="#884263"/>
<circle cx="147.667" cy="29.6666" r="2" fill="#884263"/>
<circle cx="167.333" cy="29.6666" r="2" fill="#884263"/>
<circle cx="187" cy="29.6666" r="2" fill="#884263"/>
<circle cx="206.667" cy="29.6666" r="2" fill="#884263"/>
<circle cx="226.333" cy="29.6666" r="2" fill="#884263"/>
<circle cx="246" cy="29.6666" r="2" fill="#884263"/>
<circle cx="10" cy="49.3334" r="2" fill="#884263"/>
<circle cx="29.6667" cy="49.3334" r="2" fill="#884263"/>
<circle cx="49.3333" cy="49.3334" r="2" fill="#884263"/>
<circle cx="69" cy="49.3334" r="2" fill="#884263"/>
<circle cx="88.6667" cy="49.3334" r="2" fill="#884263"/>
<circle cx="108.333" cy="49.3334" r="2" fill="#884263"/>
<circle cx="128" cy="49.3334" r="2" fill="#884263"/>
<circle cx="147.667" cy="49.3334" r="2" fill="#884263"/>
<circle cx="167.333" cy="49.3334" r="2" fill="#884263"/>
<circle cx="187" cy="49.3334" r="2" fill="#884263"/>
<circle cx="206.667" cy="49.3334" r="2" fill="#884263"/>
<circle cx="226.333" cy="49.3334" r="2" fill="#884263"/>
<circle cx="246" cy="49.3334" r="2" fill="#884263"/>
<circle cx="10" cy="69" r="2" fill="#884263"/>
<circle cx="29.6667" cy="69" r="2" fill="#884263"/>
<circle cx="49.3333" cy="69" r="2" fill="#884263"/>
<circle cx="69" cy="69" r="2" fill="#884263"/>
<circle cx="88.6667" cy="69" r="2" fill="#884263"/>
<circle cx="108.333" cy="69" r="2" fill="#884263"/>
<circle cx="128" cy="69" r="2" fill="#884263"/>
<circle cx="147.667" cy="69" r="2" fill="#884263"/>
<circle cx="167.333" cy="69" r="2" fill="#884263"/>
<circle cx="187" cy="69" r="2" fill="#884263"/>
<circle cx="206.667" cy="69" r="2" fill="#884263"/>
<circle cx="226.333" cy="69" r="2" fill="#884263"/>
<circle cx="246" cy="69" r="2" fill="#884263"/>
<circle cx="10" cy="88.6666" r="2" fill="#884263"/>
<circle cx="29.6667" cy="88.6666" r="2" fill="#884263"/>
<circle cx="49.3333" cy="88.6666" r="2" fill="#884263"/>
<circle cx="69" cy="88.6666" r="2" fill="#884263"/>
<circle cx="88.6667" cy="88.6666" r="2" fill="#884263"/>
<circle cx="108.333" cy="88.6666" r="2" fill="#884263"/>
<circle cx="128" cy="88.6666" r="2" fill="#884263"/>
<circle cx="147.667" cy="88.6666" r="2" fill="#884263"/>
<circle cx="167.333" cy="88.6666" r="2" fill="#884263"/>
<circle cx="187" cy="88.6666" r="2" fill="#884263"/>
<circle cx="206.667" cy="88.6666" r="2" fill="#884263"/>
<circle cx="226.333" cy="88.6666" r="2" fill="#884263"/>
<circle cx="246" cy="88.6666" r="2" fill="#884263"/>
<circle cx="10" cy="108.333" r="2" fill="#884263"/>
<circle cx="29.6667" cy="108.333" r="2" fill="#884263"/>
<circle cx="49.3333" cy="108.333" r="2" fill="#884263"/>
<circle cx="69" cy="108.333" r="2" fill="#884263"/>
<circle cx="88.6667" cy="108.333" r="2" fill="#884263"/>
<circle cx="108.333" cy="108.333" r="2" fill="#884263"/>
<circle cx="128" cy="108.333" r="2" fill="#884263"/>
<circle cx="147.667" cy="108.333" r="2" fill="#884263"/>
<circle cx="167.333" cy="108.333" r="2" fill="#884263"/>
<circle cx="187" cy="108.333" r="2" fill="#884263"/>
<circle cx="206.667" cy="108.333" r="2" fill="#884263"/>
<circle cx="226.333" cy="108.333" r="2" fill="#884263"/>
<circle cx="246" cy="108.333" r="2" fill="#884263"/>
<circle cx="10" cy="128" r="2" fill="#884263"/>
<circle cx="29.6667" cy="128" r="2" fill="#884263"/>
<circle cx="49.3333" cy="128" r="2" fill="#884263"/>
<circle cx="69" cy="128" r="2" fill="#884263"/>
<circle cx="88.6667" cy="128" r="2" fill="#884263"/>
<circle cx="108.333" cy="128" r="2" fill="#884263"/>
<circle cx="128" cy="128" r="2" fill="#884263"/>
<circle cx="147.667" cy="128" r="2" fill="#884263"/>
<circle cx="167.333" cy="128" r="2" fill="#884263"/>
<circle cx="187" cy="128" r="2" fill="#884263"/>
<circle cx="206.667" cy="128" r="2" fill="#884263"/>
<circle cx="226.333" cy="128" r="2" fill="#884263"/>
<circle cx="246" cy="128" r="2" fill="#884263"/>
<circle cx="10" cy="147.667" r="2" fill="#884263"/>
<circle cx="29.6667" cy="147.667" r="2" fill="#884263"/>
<circle cx="49.3333" cy="147.667" r="2" fill="#884263"/>
<circle cx="69" cy="147.667" r="2" fill="#884263"/>
<circle cx="88.6667" cy="147.667" r="2" fill="#884263"/>
<circle cx="108.333" cy="147.667" r="2" fill="#884263"/>
<circle cx="128" cy="147.667" r="2" fill="#884263"/>
<circle cx="147.667" cy="147.667" r="2" fill="#884263"/>
<circle cx="167.333" cy="147.667" r="2" fill="#884263"/>
<circle cx="187" cy="147.667" r="2" fill="#884263"/>
<circle cx="206.667" cy="147.667" r="2" fill="#884263"/>
<circle cx="226.333" cy="147.667" r="2" fill="#884263"/>
<circle cx="246" cy="147.667" r="2" fill="#884263"/>
<circle cx="10" cy="167.333" r="2" fill="#884263"/>
<circle cx="29.6667" cy="167.333" r="2" fill="#884263"/>
<circle cx="49.3333" cy="167.333" r="2" fill="#884263"/>
<circle cx="69" cy="167.333" r="2" fill="#884263"/>
<circle cx="88.6667" cy="167.333" r="2" fill="#884263"/>
<circle cx="108.333" cy="167.333" r="2" fill="#884263"/>
<circle cx="128" cy="167.333" r="2" fill="#884263"/>
<circle cx="147.667" cy="167.333" r="2" fill="#884263"/>
<circle cx="167.333" cy="167.333" r="2" fill="#884263"/>
<circle cx="187" cy="167.333" r="2" fill="#884263"/>
<circle cx="206.667" cy="167.333" r="2" fill="#884263"/>
<circle cx="226.333" cy="167.333" r="2" fill="#884263"/>
<circle cx="246" cy="167.333" r="2" fill="#884263"/>
<circle cx="10" cy="187" r="2" fill="#884263"/>
<circle cx="29.6667" cy="187" r="2" fill="#884263"/>
<circle cx="49.3333" cy="187" r="2" fill="#884263"/>
<circle cx="69" cy="187" r="2" fill="#884263"/>
<circle cx="88.6667" cy="187" r="2" fill="#884263"/>
<circle cx="108.333" cy="187" r="2" fill="#884263"/>
<circle cx="128" cy="187" r="2" fill="#884263"/>
<circle cx="147.667" cy="187" r="2" fill="#884263"/>
<circle cx="167.333" cy="187" r="2" fill="#884263"/>
<circle cx="187" cy="187" r="2" fill="#884263"/>
<circle cx="206.667" cy="187" r="2" fill="#884263"/>
<circle cx="226.333" cy="187" r="2" fill="#884263"/>
<circle cx="246" cy="187" r="2" fill="#884263"/>
<circle cx="10" cy="206.667" r="2" fill="#884263"/>
<circle cx="29.6667" cy="206.667" r="2" fill="#884263"/>
<circle cx="49.3333" cy="206.667" r="2" fill="#884263"/>
<circle cx="69" cy="206.667" r="2" fill="#884263"/>
<circle cx="88.6667" cy="206.667" r="2" fill="#884263"/>
<circle cx="108.333" cy="206.667" r="2" fill="#884263"/>
<circle cx="128" cy="206.667" r="2" fill="#884263"/>
<circle cx="147.667" cy="206.667" r="2" fill="#884263"/>
<circle cx="167.333" cy="206.667" r="2" fill="#884263"/>
<circle cx="187" cy="206.667" r="2" fill="#884263"/>
<circle cx="206.667" cy="206.667" r="2" fill="#884263"/>
<circle cx="226.333" cy="206.667" r="2" fill="#884263"/>
<circle cx="246" cy="206.667" r="2" fill="#884263"/>
<circle cx="10" cy="226.333" r="2" fill="#884263"/>
<circle cx="29.6667" cy="226.333" r="2" fill="#884263"/>
<circle cx="49.3333" cy="226.333" r="2" fill="#884263"/>
<circle cx="69" cy="226.333" r="2" fill="#884263"/>
<circle cx="88.6667" cy="226.333" r="2" fill="#884263"/>
<circle cx="108.333" cy="226.333" r="2" fill="#884263"/>
<circle cx="128" cy="226.333" r="2" fill="#884263"/>
<circle cx="147.667" cy="226.333" r="2" fill="#884263"/>
<circle cx="167.333" cy="226.333" r="2" fill="#884263"/>
<circle cx="187" cy="226.333" r="2" fill="#884263"/>
<circle cx="206.667" cy="226.333" r="2" fill="#884263"/>
<circle cx="226.333" cy="226.333" r="2" fill="#884263"/>
<circle cx="246" cy="226.333" r="2" fill="#884263"/>
<circle cx="10" cy="246" r="2" fill="#884263"/>
<circle cx="29.6667" cy="246" r="2" fill="#884263"/>
<circle cx="49.3333" cy="246" r="2" fill="#884263"/>
<circle cx="69" cy="246" r="2" fill="#884263"/>
<circle cx="88.6667" cy="246" r="2" fill="#884263"/>
<circle cx="108.333" cy="246" r="2" fill="#884263"/>
<circle cx="128" cy="246" r="2" fill="#884263"/>
<circle cx="147.667" cy="246" r="2" fill="#884263"/>
<circle cx="167.333" cy="246" r="2" fill="#884263"/>
<circle cx="187" cy="246" r="2" fill="#884263"/>
<circle cx="206.667" cy="246" r="2" fill="#884263"/>
<circle cx="226.333" cy="246" r="2" fill="#884263"/>
<circle cx="246" cy="246" r="2" fill="#884263"/>
<rect x="-45.4853" y="174.485" width="254" height="254" transform="rotate(-60 -45.4853 174.485)" stroke="#BC7D9A" stroke-width="2"/>
</g>
<defs>
<clipPath id="clip0_46_1018">
<rect width="256" height="256" fill="white"/>
</clipPath>
</defs>
</svg>
